<svg width="267" height="81" viewBox="0 0 267 81" fill="none" xmlns="http://www.w3.org/2000/svg">
<g clip-path="url(#clip0_1125_17398)">
<path d="M246.184 0.105469H20.2965C14.968 0.105469 10.6484 4.52248 10.6484 9.97113V70.1428C10.6484 75.5914 14.968 80.0084 20.2965 80.0084H246.184C251.512 80.0084 255.832 75.5914 255.832 70.1428V9.97113C255.832 4.52248 251.512 0.105469 246.184 0.105469Z" fill="#CEFF1C"/>
<path d="M181.625 68.8804L28.5061 68.8804C23.5778 68.8804 19.5831 64.6283 19.5831 59.3822L19.5703 18.2627C19.5703 13.0133 23.5649 8.75797 28.4932 8.75797L237.962 8.73828C242.89 8.73828 246.885 12.9903 246.885 18.2365L246.898 59.3559C246.898 64.6054 242.903 68.8607 237.975 68.8607H227.425" stroke="#6232FF" stroke-width="0.571922" stroke-miterlimit="10"/>
<path d="M50.0265 58.6443C47.8544 57.7355 46.1185 56.3871 44.8223 54.6056C43.5228 52.824 42.8362 50.6751 42.7656 48.1619H52.4843C52.6254 49.5825 53.1067 50.6652 53.9249 51.41C54.7431 52.158 55.8115 52.5288 57.127 52.5288C58.4425 52.5288 59.5462 52.2105 60.3291 51.574C61.112 50.9375 61.5035 50.055 61.5035 48.9263C61.5035 47.9814 61.1922 47.1973 60.5698 46.5772C59.9473 45.9571 59.1805 45.4486 58.2725 45.0483C57.3644 44.648 56.0746 44.192 54.3998 43.6835C51.9805 42.919 50.0041 42.1546 48.4736 41.3901C46.9431 40.6257 45.6244 39.497 44.5239 38.0042C43.4202 36.5114 42.8683 34.5659 42.8683 32.161C42.8683 28.5946 44.1325 25.7993 46.6608 23.7815C49.1891 21.7605 52.4811 20.75 56.5399 20.75C60.5986 20.75 63.9965 21.7605 66.5248 23.7815C69.0531 25.8026 70.4039 28.6143 70.5836 32.2167H60.7045C60.6339 30.9798 60.1879 30.0054 59.3698 29.2967C58.5516 28.5881 57.5024 28.2304 56.219 28.2304C55.1153 28.2304 54.2265 28.5323 53.5495 29.1327C52.8725 29.7331 52.5356 30.5992 52.5356 31.7246C52.5356 32.9615 53.1035 33.9261 54.2457 34.6183C55.3848 35.3106 57.1655 36.0554 59.5847 36.8559C62.004 37.6925 63.9708 38.4931 65.4852 39.2575C66.9964 40.022 68.3055 41.1309 69.4093 42.5876C70.513 44.0444 71.0649 45.9178 71.0649 48.2111C71.0649 50.5044 70.5226 52.3778 69.4349 54.1627C68.3472 55.9475 66.7751 57.3648 64.7088 58.4212C62.6425 59.4777 60.204 60.0059 57.3933 60.0059C54.5826 60.0059 52.1955 59.5499 50.0265 58.6411V58.6443Z" fill="#6232FF"/>
<path d="M77.5204 30.2834C79.1214 27.3174 81.3546 25.0077 84.2198 23.3508C87.085 21.694 90.3321 20.8672 93.9641 20.8672C98.4143 20.8672 102.223 22.068 105.39 24.4696C108.557 26.8712 110.674 30.1488 111.743 34.2959H101.703C100.955 32.6948 99.8967 31.4743 98.5266 30.6377C97.1566 29.8011 95.5973 29.3811 93.855 29.3811C91.0443 29.3811 88.7631 30.3818 87.0208 32.3831C85.2754 34.3845 84.4059 37.0617 84.4059 40.4082C84.4059 43.7547 85.2786 46.4319 87.0208 48.4333C88.7631 50.4346 91.0443 51.4353 93.855 51.4353C95.5973 51.4353 97.1566 51.0186 98.5266 50.1787C99.8967 49.3421 100.955 48.1216 101.703 46.5205H111.743C110.674 50.6708 108.557 53.9386 105.39 56.3205C102.22 58.7058 98.4111 59.8967 93.9641 59.8967C90.3321 59.8967 87.085 59.0699 84.2198 57.4131C81.3546 55.7562 79.1214 53.4563 77.5204 50.5068C75.9193 47.5573 75.1172 44.1911 75.1172 40.4049C75.1172 36.6188 75.9193 33.2427 77.5204 30.2768V30.2834Z" fill="#6232FF"/>
<path d="M125.389 57.4967C122.453 55.8234 120.12 53.4841 118.394 50.4821C116.668 47.4801 115.805 44.104 115.805 40.354C115.805 36.6039 116.668 33.2377 118.394 30.2521C120.12 27.2665 122.453 24.937 125.389 23.2638C128.324 21.5905 131.555 20.7539 135.078 20.7539C138.601 20.7539 141.832 21.5905 144.768 23.2638C147.704 24.937 150.017 27.2698 151.708 30.2521C153.399 33.2377 154.243 36.6039 154.243 40.354C154.243 44.104 153.389 47.4801 151.679 50.4821C149.969 53.4841 147.656 55.8234 144.739 57.4967C141.819 59.1699 138.598 60.0098 135.075 60.0098C131.552 60.0098 128.321 59.1732 125.385 57.4967H125.389ZM142.262 48.4315C144.059 46.3941 144.957 43.7005 144.957 40.3507C144.957 37.0009 144.059 34.2646 142.262 32.2436C140.465 30.2226 138.072 29.2121 135.082 29.2121C132.091 29.2121 129.643 30.2127 127.846 32.2141C126.05 34.2154 125.151 36.9287 125.151 40.3507C125.151 43.7727 126.05 46.4368 127.846 48.4578C129.643 50.4788 132.056 51.4893 135.082 51.4893C138.107 51.4893 140.465 50.4723 142.262 48.4315Z" fill="#6232FF"/>
<path d="M168.289 21.3008V44.231C168.289 46.5243 168.841 48.2894 169.945 49.5263C171.048 50.7632 172.669 51.3833 174.802 51.3833C176.936 51.3833 178.576 50.7665 179.715 49.5263C180.854 48.2894 181.425 46.5243 181.425 44.231V21.3008H190.556V44.1785C190.556 47.6004 189.844 50.4942 188.419 52.8597C186.995 55.2252 185.083 57.01 182.679 58.2108C180.276 59.4117 177.597 60.0121 174.645 60.0121C171.693 60.0121 169.046 59.4215 166.717 58.2371C164.384 57.056 162.543 55.2712 161.192 52.886C159.838 50.504 159.164 47.6004 159.164 44.1785V21.3008H168.296H168.289Z" fill="#6232FF"/>
<path d="M223.93 21.3008V28.7812H213.999V59.6282H204.868V28.7812H194.938V21.3008H223.93Z" fill="#6232FF"/>
<path d="M134.63 51.9457C141.066 51.9457 146.283 46.6106 146.283 40.0295C146.283 33.4483 141.066 28.1133 134.63 28.1133C128.194 28.1133 122.977 33.4483 122.977 40.0295C122.977 46.6106 128.194 51.9457 134.63 51.9457Z" fill="#6232FF"/>
<path d="M124.905 62.2234L138.448 41.0354L139.96 48.4043C140.155 49.3524 141.063 49.9627 141.994 49.7626L145.388 49.0342C146.316 48.8341 146.912 47.9056 146.717 46.9541L143.142 29.5096C142.947 28.5614 142.039 27.9512 141.108 28.1513L124.048 31.8062C123.121 32.0063 122.524 32.9348 122.72 33.8863L123.432 37.3575C123.628 38.3057 124.536 38.9159 125.467 38.7158L132.673 37.1705L121.02 55.4057L119.727 57.7712" fill="#CEFF1C"/>
<path d="M193.326 69.345C193.56 69.5353 193.749 69.7748 193.887 70.057C194.025 70.3391 194.096 70.6442 194.096 70.9658C194.096 71.3726 193.993 71.7368 193.791 72.0616C193.589 72.3864 193.293 72.6423 192.908 72.8326C192.523 73.0196 192.068 73.1148 191.545 73.1148H188.625V65.1094H191.432C191.965 65.1094 192.417 65.198 192.79 65.3784C193.165 65.5589 193.444 65.8016 193.63 66.1068C193.816 66.4119 193.913 66.7564 193.913 67.1403C193.913 67.616 193.788 68.0064 193.537 68.3181C193.287 68.6265 192.957 68.8529 192.543 68.9907C192.828 69.0366 193.088 69.1547 193.322 69.345H193.326ZM189.649 68.5642H191.368C191.846 68.5642 192.219 68.4493 192.478 68.2197C192.742 67.99 192.87 67.6718 192.87 67.2649C192.87 66.8581 192.738 66.5399 192.478 66.3102C192.215 66.0805 191.837 65.9657 191.343 65.9657H189.645V68.5609L189.649 68.5642ZM192.645 71.8811C192.931 71.6351 193.072 71.2939 193.072 70.8575C193.072 70.4212 192.921 70.0635 192.623 69.8076C192.324 69.5517 191.923 69.4238 191.42 69.4238H189.645V72.2486H191.452C191.962 72.2486 192.357 72.1272 192.642 71.8811H192.645Z" fill="#1E1E24"/>
<path d="M201.557 65.1094L199.006 70.0931V73.1148H197.982V70.0931L195.422 65.1094H196.558L198.489 69.1646L200.421 65.1094H201.557Z" fill="#1E1E24"/>
<path d="M211.563 65.1094V65.9591H209.429V73.1148H208.409V65.9591H206.266V65.1094H211.566H211.563Z" fill="#1E1E24"/>
<path d="M214.475 72.9102C214.067 72.7232 213.747 72.4608 213.516 72.1294C213.285 71.798 213.163 71.4109 213.156 70.9745H214.244C214.282 71.3485 214.433 71.6668 214.7 71.9227C214.966 72.1786 215.354 72.3065 215.861 72.3065C216.368 72.3065 216.731 72.1819 217.013 71.9325C217.295 71.6832 217.433 71.3649 217.433 70.9745C217.433 70.6694 217.35 70.42 217.186 70.2265C217.023 70.0362 216.817 69.8885 216.57 69.7901C216.323 69.6917 215.989 69.5834 215.569 69.4686C215.052 69.3308 214.639 69.193 214.327 69.0552C214.016 68.9174 213.75 68.7008 213.532 68.4056C213.31 68.1103 213.201 67.7133 213.201 67.2179C213.201 66.7815 213.31 66.3944 213.528 66.0564C213.747 65.7185 214.051 65.4593 214.443 65.2756C214.834 65.0919 215.287 65 215.797 65C216.532 65 217.132 65.187 217.6 65.561C218.069 65.935 218.332 66.4337 218.393 67.0538H217.27C217.231 66.7487 217.074 66.4764 216.798 66.2435C216.522 66.0105 216.153 65.8924 215.697 65.8924C215.271 65.8924 214.921 66.004 214.655 66.2303C214.385 66.4567 214.25 66.7717 214.25 67.1785C214.25 67.4705 214.331 67.7067 214.491 67.8905C214.651 68.0742 214.85 68.2153 215.085 68.3104C215.322 68.4056 215.653 68.5138 216.079 68.6385C216.596 68.7829 217.013 68.9272 217.327 69.0683C217.642 69.2094 217.911 69.4292 218.136 69.7245C218.36 70.0198 218.473 70.42 218.473 70.9253C218.473 71.3157 218.373 71.6832 218.171 72.0277C217.969 72.3722 217.671 72.651 217.273 72.8643C216.875 73.0776 216.41 73.1858 215.867 73.1858C215.325 73.1858 214.889 73.0907 214.481 72.9037L214.475 72.9102Z" fill="#1E1E24"/>
</g>
<defs>
<clipPath id="clip0_1125_17398">
<rect width="266.126" height="79.7258" fill="white" transform="translate(0.734375 0.730469)"/>
</clipPath>
</defs>
</svg>
