<svg width="68" height="55" viewBox="0 0 68 55" fill="none" xmlns="http://www.w3.org/2000/svg">
<path id="Vector" d="M0.521372 51.5625V34.375L0.531569 24.3414L0.531589 24.3212L0.52997 24.301C0.501604 23.9472 -0.127252 15.0931 6.13857 8.21548C10.7836 3.12281 17.8447 0.5 27.2128 0.5H30.1117V9.28142L27.7799 9.75367C27.7798 9.75368 27.7798 9.75369 27.7798 9.7537C23.0535 10.7097 19.6633 12.6102 17.8282 15.4887L17.8282 15.4887L17.8244 15.4948C16.8747 17.0329 16.3363 18.7935 16.2615 20.6044L16.24 21.125H16.7611H27.2128C27.9798 21.125 28.7166 21.4331 29.2607 21.9834C29.805 22.5338 30.1117 23.2816 30.1117 24.0625V48.125C30.1117 51.6458 27.2815 54.5 23.8139 54.5H3.4203C2.65329 54.5 1.91654 54.1919 1.37244 53.6416C0.828149 53.0912 0.521372 52.3434 0.521372 51.5625ZM37.9198 24.3414L37.9198 24.3212L37.9182 24.301C37.8898 23.9472 37.261 15.0933 43.5266 8.21569C48.1716 3.12288 55.2328 0.5 64.6011 0.5H67.5V9.28142L65.1681 9.75367C60.4418 10.7097 57.0516 12.6102 55.2165 15.4887L55.2164 15.4887L55.2127 15.4948C54.263 17.0329 53.7246 18.7935 53.6498 20.6044L53.6283 21.125H54.1493H64.6011C65.3681 21.125 66.1048 21.4331 66.6489 21.9834C67.1932 22.5338 67.5 23.2816 67.5 24.0625V48.125C67.5 51.6458 64.6697 54.5 61.2021 54.5H40.8085C40.0415 54.5 39.3048 54.1919 38.7607 53.6416C38.2164 53.0912 37.9096 52.3434 37.9096 51.5625V34.3755V34.375L37.9198 24.3414Z" stroke="white"/>
</svg>
