<?xml version="1.0" encoding="UTF-8"?>
<svg id="Layer_2" data-name="Layer 2" xmlns="http://www.w3.org/2000/svg" viewBox="0 0 524.16 116.99">
  <defs>
    <style>
      .cls-1 {
        fill: #fff;
        stroke-width: 0px;
      }
    </style>
  </defs>
  <g id="Layer_1-2" data-name="Layer 1">
    <g>
      <path class="cls-1" d="m55.71,21.05h17.75v6.94h.34c3.75-4.78,10.01-9.1,19.68-9.1,22.41,0,30.83,19.68,30.83,34.35,0,18.2-12.74,33.1-30.71,33.1-11.38,0-16.72-5.46-19-7.85v26.73h-18.88V21.05Zm49.71,31.62c0-7.51-5.46-16.15-15.81-16.15s-15.81,8.64-15.81,16.15c0,7.96,5.92,16.04,15.81,16.04s15.81-8.08,15.81-16.04Z"/>
      <path class="cls-1" d="m200.76,84.18h-18.88v-6.83h-.23c-3.19,6.14-11.03,8.99-18.43,8.99-20.02,0-31.74-15.7-31.74-33.78,0-20.7,14.9-33.67,31.74-33.67,10.35,0,16.15,5.01,18.43,8.87h.23v-6.71h18.88v63.13Zm-34.69-15.47c11.83,0,15.81-10.01,15.81-16.15,0-7.62-5.23-16.04-15.93-16.04s-15.58,9.1-15.58,16.27c0,5.92,4.32,15.93,15.7,15.93Z"/>
      <path class="cls-1" d="m208.22,21.05h17.75v6.71h.23c1.59-3.07,4.89-8.87,15.81-8.87v19c-8.76.23-14.9,2.05-14.9,11.6v34.69h-18.88V21.05Z"/>
      <path class="cls-1" d="m306.81,21.04h-22.41l-17.52,22.86h-.23V0h-18.88v84.18h18.88v-30.37h.23l9.39,15.97,11.56-13.62-4.8-7.35,23.77-27.76Z"/>
      <path class="cls-1" d="m322.82,23.13c-2.67,0-3.27.32-5.44.89h0l-23.86,27.69,4.78,7.37-11.6,13.59-1.8,2.11-.1,34.59,18.88.05.08-26.73c2.27,2.4,7.6,7.87,18.97,7.9,17.97.05,30.76-14.81,30.81-33.01.04-14.67-8.32-34.38-30.73-34.44Zm-4.01,49.81c-9.9-.03-15.79-8.12-15.77-16.09.02-7.51,5.51-16.14,15.86-16.11,10.35.03,15.79,8.69,15.76,16.2-.02,7.96-5.96,16.02-15.86,15.99Z"/>
      <path class="cls-1" d="m362.33,4.35l18.88.05-.24,84.18-18.88-.05.24-84.18Z"/>
      <path class="cls-1" d="m447.31,88.78l-17.86-.05.02-6.71h-.23c-3.89,8.06-11.63,8.72-16.41,8.71-3.87-.01-12.96-.95-18.52-8.02-4.99-6.27-5.66-10.82-5.63-19.47l.11-37.77,18.88.05-.1,34.92c-.01,4.32-.04,12.63,10.09,12.66,5.46.02,10.81-2.81,10.84-12.82l.1-34.69,18.88.05-.18,63.13Z"/>
      <path class="cls-1" d="m524,81.38c-.03,9.44-.73,15.47-3.81,20.81-4.91,7.95-11.8,14.81-27.38,14.81h-37.66l12.88-15.73c5.58-.11,20.31-.19,21.56-.19,2.39,0,15.36-.18,15.41-17.13v-1.93s-.22,0-.22,0c-1.94,3.63-7.42,8.96-17.32,8.94-17.18-.05-31.81-13.06-31.75-33.31.06-21.61,15.57-33.97,31.95-33.92,7.05.02,13.98,2.54,17.38,8.01h.23s3.53-2.83,3.53-2.83l15.37-11.08-.16,63.56Zm-34.33-8.06c9.1.03,15.49-6.55,15.52-15.65.03-10.12-6.89-16.29-15.31-16.31-8.08-.02-15.26,6.44-15.29,15.65-.03,10.12,7.23,16.29,15.08,16.31Z"/>
      <path class="cls-1" d="m34.09,35.18c-.32,0-5.5,0-10.71,0-3.72,0-5,2.34-5,3.93,0,3.19,4.36,5,9.03,6.38,9.99,2.76,20.62,5.74,20.62,18.49s-10.95,20.09-24.02,20.09H0l12.66-14.12c1.97,0,10.83-.02,11.58-.02,2.98,0,6.16-1.7,6.16-4.57,0-4.57-4.36-5.1-15.62-9.46-7.65-2.44-14.03-7.44-14.03-15.41,0-11.69,10.63-19.45,22.85-19.45,7.76,0,19.01.07,22.64.07l-12.14,14.06Z"/>
    </g>
  </g>
</svg>