<svg width="44" height="55" viewBox="0 0 44 55" fill="none" xmlns="http://www.w3.org/2000/svg">
<g id="Group">
<path id="Vector" d="M22.0299 30.0501C26.2549 30.0501 29.6799 26.625 29.6799 22.4001C29.6799 18.1751 26.2549 14.7501 22.0299 14.7501C17.8049 14.7501 14.3799 18.1751 14.3799 22.4001C14.3799 26.625 17.8049 30.0501 22.0299 30.0501Z" stroke="#F8F8F8" stroke-width="3" stroke-linecap="round" stroke-linejoin="round"/>
<path id="Vector_2" d="M22.03 2C16.6196 2 11.4308 4.14928 7.60503 7.97502C3.77928 11.8008 1.63 16.9896 1.63 22.4C1.63 27.2246 2.6551 30.3815 5.455 33.875L22.03 53L38.605 33.875C41.4049 30.3815 42.43 27.2246 42.43 22.4C42.43 16.9896 40.2807 11.8008 36.455 7.97502C32.6292 4.14928 27.4404 2 22.03 2Z" stroke="#F8F8F8" stroke-width="3" stroke-linecap="round" stroke-linejoin="round"/>
</g>
</svg>
