<svg width="39" height="39" viewBox="0 0 39 39" fill="none" xmlns="http://www.w3.org/2000/svg">
<path id="Vector" d="M36.725 39C32.2111 39 27.7514 38.0156 23.3458 36.0468C18.9403 34.0781 14.9319 31.2888 11.3208 27.6792C7.70972 24.0681 4.9205 20.0597 2.95317 15.6542C0.985833 11.2486 0.00144444 6.78889 0 2.275C0 1.625 0.216667 1.08333 0.65 0.65C1.08333 0.216667 1.625 0 2.275 0H11.05C11.5556 0 12.0069 0.171889 12.4042 0.515666C12.8014 0.859444 13.0361 1.26533 13.1083 1.73333L14.5167 9.31667C14.5889 9.89445 14.5708 10.3819 14.4625 10.7792C14.3542 11.1764 14.1556 11.5194 13.8667 11.8083L8.6125 17.1167C9.33472 18.4528 10.192 19.7434 11.1843 20.9885C12.1767 22.2336 13.2694 23.4347 14.4625 24.5917C15.5819 25.7111 16.7556 26.7497 17.9833 27.7073C19.2111 28.665 20.5111 29.5403 21.8833 30.3333L26.975 25.2417C27.3 24.9167 27.7247 24.6726 28.249 24.5093C28.7733 24.3461 29.2876 24.3013 29.7917 24.375L37.2667 25.8917C37.7722 26.0361 38.1875 26.2983 38.5125 26.6782C38.8375 27.0581 39 27.482 39 27.95V36.725C39 37.375 38.7833 37.9167 38.35 38.35C37.9167 38.7833 37.375 39 36.725 39ZM6.55417 13L10.1292 9.425L9.20833 4.33333H4.3875C4.56806 5.81389 4.82083 7.27639 5.14583 8.72083C5.47083 10.1653 5.94028 11.5917 6.55417 13ZM25.9458 32.3917C27.3542 33.0056 28.7899 33.4931 30.2532 33.8542C31.7164 34.2153 33.1876 34.45 34.6667 34.5583V29.7917L29.575 28.7625L25.9458 32.3917Z" fill="#F8F8F8"/>
</svg>
