<svg width="60" height="51" viewBox="0 0 60 51" fill="none" xmlns="http://www.w3.org/2000/svg">
<path d="M16.0632 14.8167L16.0631 14.8167L16.0604 14.8214C15.2383 16.2169 14.773 17.8131 14.7083 19.4538L14.6924 19.8579H15.0967H24.2133C24.8889 19.8579 25.5418 20.1422 26.0269 20.6564C26.5127 21.1714 26.7893 21.8745 26.7893 22.6121V44.6129C26.7893 47.8866 24.2829 50.5101 21.2486 50.5101H3.46013C2.78449 50.5101 2.13159 50.2258 1.64651 49.7115C1.1607 49.1965 0.88411 48.4934 0.88411 47.7558V32.041L0.893005 22.8671L0.893019 22.852L0.891873 22.837C0.866624 22.5069 0.316578 14.3817 5.80201 8.07017C9.86685 3.39855 16.0386 1.00005 24.2133 1.00005H26.7893V9.15649L24.7138 9.5971C20.593 10.4708 17.6512 12.2056 16.0632 14.8167ZM33.5051 22.8671L33.5052 22.852L33.504 22.837C33.4788 22.5069 32.9287 14.3817 38.4142 8.07017C42.479 3.39855 48.6508 1.00005 56.8254 1.00005H59.4015V9.15649L57.3259 9.5971C53.2051 10.4708 50.2634 12.2056 48.6753 14.8167L48.6753 14.8167L48.6725 14.8214C47.8504 16.2169 47.3851 17.8131 47.3204 19.4538L47.3045 19.8579H47.7089H56.8254C57.5011 19.8579 58.154 20.1422 58.6391 20.6564C59.1249 21.1714 59.4015 21.8745 59.4015 22.6121V44.6129C59.4015 47.8866 56.8951 50.5101 53.8607 50.5101H36.0723C35.3966 50.5101 34.7437 50.2258 34.2586 49.7115C33.7728 49.1965 33.4962 48.4934 33.4962 47.7558V32.0414V32.041L33.5051 22.8671Z" fill="white" stroke="#65B26E" stroke-width="0.777446"/>
</svg>
