<svg width="25" height="24" viewBox="0 0 25 24" fill="none" xmlns="http://www.w3.org/2000/svg">
<g id="SVG">
<path id="Vector" fill-rule="evenodd" clip-rule="evenodd" d="M3.67857 21H22V19.6429H4.35714V2H3V20.3214L3.67857 21ZM5.71429 17.6071V6.75L6.39286 6.07143H9.10714L9.78571 6.75V17.6071L9.10714 18.2857H6.39286L5.71429 17.6071ZM8.42857 16.9286V7.42857H7.07143V16.9286H8.42857ZM16.5714 4.03571V17.6071L17.25 18.2857H19.9643L20.6429 17.6071V4.03571L19.9643 3.35714H17.25L16.5714 4.03571ZM19.2857 4.71429V16.9286H17.9286V4.71429H19.2857ZM11.1429 17.6071V9.46429L11.8214 8.78571H14.5357L15.2143 9.46429V17.6071L14.5357 18.2857H11.8214L11.1429 17.6071ZM13.8571 16.9286V10.1429H12.5V16.9286H13.8571Z" fill="white"/>
</g>
</svg>
