<svg width="25" height="24" viewBox="0 0 25 24" fill="none" xmlns="http://www.w3.org/2000/svg">
<g id="SVG">
<path id="Vector" d="M12 2C10.0222 2 8.08879 2.58649 6.4443 3.6853C4.79981 4.78412 3.51809 6.3459 2.76121 8.17316C2.00433 10.0004 1.8063 12.0111 2.19215 13.9509C2.578 15.8907 3.53041 17.6725 4.92894 19.0711C6.32746 20.4696 8.10929 21.422 10.0491 21.8078C11.9889 22.1937 13.9996 21.9957 15.8268 21.2388C17.6541 20.4819 19.2159 19.2002 20.3147 17.5557C21.4135 15.9112 22 13.9778 22 12C21.9971 9.34873 20.9426 6.80688 19.0679 4.93215C17.1931 3.05741 14.6513 2.00291 12 2ZM20.764 14.8H16.149C16.4837 12.9483 16.4837 11.0517 16.149 9.2H20.764C21.3453 11.0214 21.3453 12.9786 20.764 14.8ZM12 21.2C11.9477 21.2 11.8959 21.189 11.848 21.1678C11.8001 21.1467 11.7572 21.1157 11.722 21.077C10.357 19.607 9.37 17.705 8.841 15.6H15.159C14.63 17.705 13.643 19.607 12.278 21.077C12.2428 21.1157 12.1999 21.1467 12.152 21.1678C12.1041 21.189 12.0523 21.2 12 21.2ZM8.665 14.8C8.31167 12.9501 8.31167 11.0499 8.665 9.2H15.335C15.6883 11.0499 15.6883 12.9501 15.335 14.8H8.665ZM12 2.8C12.0523 2.80002 12.1041 2.81097 12.152 2.83215C12.1999 2.85333 12.2428 2.88428 12.278 2.923C13.643 4.393 14.63 6.3 15.159 8.4H8.841C9.37 6.3 10.357 4.393 11.722 2.923C11.7572 2.88428 11.8001 2.85333 11.848 2.83215C11.8959 2.81097 11.9477 2.80002 12 2.8ZM20.466 8.4H15.981C15.49 6.327 14.581 4.428 13.315 2.894C14.8786 3.12284 16.3573 3.7493 17.6094 4.71337C18.8615 5.67744 19.8451 6.94684 20.466 8.4ZM10.685 2.894C9.422 4.428 8.51 6.327 8.019 8.4H3.534C4.15493 6.94684 5.13854 5.67744 6.39065 4.71337C7.64275 3.7493 9.12141 3.12284 10.685 2.894ZM3.236 9.2H7.851C7.51634 11.0517 7.51634 12.9483 7.851 14.8H3.236C2.65468 12.9786 2.65468 11.0214 3.236 9.2ZM3.536 15.6H8.019C8.51 17.673 9.419 19.572 10.685 21.106C9.12141 20.8772 7.64275 20.2507 6.39065 19.2866C5.13854 18.3226 4.15493 17.0532 3.534 15.6H3.536ZM13.317 21.106C14.58 19.572 15.492 17.673 15.983 15.6H20.468C19.8469 17.0534 18.863 18.323 17.6105 19.2871C16.358 20.2512 14.879 20.8775 13.315 21.106H13.317Z" fill="white"/>
</g>
</svg>
