<svg width="25" height="25" viewBox="0 0 25 25" fill="none" xmlns="http://www.w3.org/2000/svg">
<g id="SVG">
<path id="Vector" d="M9.33333 11.3753H17.6667M9.33333 15.542H15.5833M19.75 6.16699C20.5788 6.16699 21.3737 6.49623 21.9597 7.08228C22.5458 7.66833 22.875 8.46319 22.875 9.29199V17.6253C22.875 18.4541 22.5458 19.249 21.9597 19.835C21.3737 20.4211 20.5788 20.7503 19.75 20.7503H14.5417L9.33333 23.8753V20.7503H7.25C6.4212 20.7503 5.62634 20.4211 5.04029 19.835C4.45424 19.249 4.125 18.4541 4.125 17.6253V9.29199C4.125 8.46319 4.45424 7.66833 5.04029 7.08228C5.62634 6.49623 6.4212 6.16699 7.25 6.16699H19.75Z" stroke="white" stroke-width="1.5" stroke-linecap="round" stroke-linejoin="round"/>
</g>
</svg>
