<svg width="25" height="24" viewBox="0 0 25 24" fill="none" xmlns="http://www.w3.org/2000/svg">
<g id="SVG">
<path id="Vector" d="M21.2944 15C21.3874 14.9999 21.4795 15.0181 21.5653 15.0538C21.6512 15.0894 21.7291 15.1417 21.7946 15.2076C21.8602 15.2735 21.912 15.3518 21.9472 15.4378C21.9823 15.5239 22.0001 15.616 21.9994 15.709V18.913C22.0001 19.0055 21.9825 19.0973 21.9477 19.183C21.9128 19.2688 21.8614 19.3468 21.7964 19.4126C21.7314 19.4785 21.654 19.5309 21.5688 19.5668C21.4835 19.6027 21.392 19.6215 21.2994 19.622C21.2069 19.6215 21.1154 19.6027 21.0301 19.5668C20.9448 19.5309 20.8675 19.4785 20.8025 19.4126C20.7374 19.3468 20.6861 19.2688 20.6512 19.183C20.6164 19.0973 20.5988 19.0055 20.5995 18.913V17.788C18.7785 20.844 15.3986 23 11.7567 23C7.34686 23 3.65097 20.279 2.04802 16.085C1.98071 15.9103 1.98495 15.716 2.05982 15.5444C2.13468 15.3728 2.27415 15.2375 2.448 15.168C2.80799 15.027 3.21398 15.208 3.35398 15.573C4.75393 19.235 7.94184 21.583 11.7567 21.583C15.1276 21.583 18.2765 19.401 19.7435 16.429L18.2725 16.439C18.18 16.4391 18.0883 16.421 18.0028 16.3857C17.9173 16.3504 17.8396 16.2985 17.7741 16.2332C17.7086 16.1678 17.6567 16.0901 17.6212 16.0046C17.5858 15.9192 17.5676 15.8275 17.5676 15.735C17.5651 15.5482 17.637 15.3681 17.7673 15.2342C17.8976 15.1003 18.0757 15.0236 18.2625 15.021L21.2944 15ZM12.2447 3C16.6526 3 20.3495 5.721 21.9524 9.915C22.0197 10.0897 22.0155 10.284 21.9406 10.4556C21.8658 10.6272 21.7263 10.7625 21.5524 10.832C21.4664 10.8655 21.3746 10.8817 21.2823 10.8794C21.19 10.8772 21.099 10.8566 21.0148 10.8189C20.9305 10.7813 20.8545 10.7272 20.7913 10.6599C20.7281 10.5926 20.6788 10.5135 20.6465 10.427C19.2465 6.765 16.0586 4.417 12.2437 4.417C8.87281 4.417 5.72391 6.599 4.25695 9.571L5.72791 9.561C5.82044 9.56087 5.91209 9.57898 5.99761 9.6143C6.08314 9.64962 6.16086 9.70146 6.22634 9.76684C6.29182 9.83223 6.34376 9.90988 6.3792 9.99536C6.41464 10.0808 6.43288 10.1725 6.43288 10.265C6.43529 10.4518 6.36344 10.6319 6.23314 10.7658C6.10283 10.8997 5.92471 10.9764 5.73791 10.979L2.705 11C2.61204 11.0001 2.51998 10.9819 2.43413 10.9462C2.34827 10.9106 2.27033 10.8583 2.20478 10.7924C2.13924 10.7265 2.0874 10.6482 2.05226 10.5622C2.01711 10.4761 1.99936 10.384 2.00002 10.291V7.087C2.00002 6.695 2.31301 6.378 2.7 6.378C3.08599 6.378 3.39998 6.695 3.39998 7.087V8.212C5.22092 5.156 8.60082 3 12.2427 3H12.2447Z" fill="white"/>
</g>
</svg>
