<svg width="25" height="24" viewBox="0 0 25 24" fill="none" xmlns="http://www.w3.org/2000/svg">
<g id="SVG">
<g id="Group 1000004212">
<path id="Vector" d="M18.5698 14.9216C18.3581 14.9224 18.154 14.8432 17.9981 14.7C16.449 13.3127 14.4426 12.5456 12.3631 12.5456C10.2837 12.5456 8.27725 13.3127 6.72815 14.7C6.6424 14.7767 6.54237 14.8357 6.43378 14.8737C6.32519 14.9117 6.21017 14.9279 6.0953 14.9214C5.98043 14.9149 5.86798 14.8858 5.76437 14.8358C5.66075 14.7858 5.56802 14.7159 5.49148 14.63C5.34088 14.454 5.26511 14.2261 5.28037 13.995C5.29563 13.7639 5.40072 13.5479 5.57315 13.3933C7.43694 11.7159 9.85567 10.7877 12.3631 10.7877C14.8706 10.7877 17.2894 11.7159 19.1531 13.3933C19.3256 13.5479 19.4307 13.7639 19.4459 13.995C19.4612 14.2261 19.3854 14.454 19.2348 14.63C19.1495 14.7211 19.0466 14.7939 18.9323 14.844C18.8179 14.8942 18.6946 14.9206 18.5698 14.9216Z" fill="white"/>
<path id="Vector_2" d="M21.6614 11.6667C21.441 11.6656 21.2289 11.5824 21.0664 11.4334C18.708 9.18525 15.5747 7.93115 12.3164 7.93115C9.05817 7.93115 5.92491 9.18525 3.56645 11.4334C3.48615 11.5289 3.38636 11.6061 3.27377 11.6598C3.16118 11.7136 3.0384 11.7426 2.91366 11.745C2.78892 11.7474 2.66511 11.7231 2.55054 11.6738C2.43596 11.6244 2.33327 11.5511 2.24934 11.4588C2.16542 11.3665 2.10221 11.2573 2.06395 11.1385C2.02569 11.0198 2.01327 10.8942 2.02751 10.7703C2.04176 10.6463 2.08235 10.5268 2.14656 10.4199C2.21076 10.3129 2.2971 10.2209 2.39978 10.15C5.07818 7.6129 8.62716 6.19885 12.3164 6.19885C16.0057 6.19885 19.5547 7.6129 22.2331 10.15C22.3607 10.2682 22.4503 10.4218 22.4902 10.5911C22.5301 10.7605 22.5187 10.9378 22.4573 11.1006C22.396 11.2634 22.2875 11.4042 22.1457 11.505C22.004 11.6059 21.8354 11.6622 21.6614 11.6667ZM9.27145 18.2467C9.13561 18.2467 9.00164 18.2151 8.88014 18.1543C8.75864 18.0936 8.65295 18.0054 8.57145 17.8967C8.50099 17.8054 8.44955 17.7008 8.42016 17.5893C8.39077 17.4778 8.38403 17.3615 8.40035 17.2473C8.41666 17.1331 8.45569 17.0233 8.51514 16.9244C8.57458 16.8256 8.65323 16.7397 8.74645 16.6717C9.77635 15.8836 11.0371 15.4566 12.3339 15.4566C13.6308 15.4566 14.8915 15.8836 15.9214 16.6717C16.0134 16.7406 16.0908 16.827 16.1494 16.9259C16.2079 17.0248 16.2464 17.1342 16.2627 17.248C16.2789 17.3617 16.2726 17.4775 16.2441 17.5889C16.2156 17.7002 16.1654 17.8048 16.0964 17.8967C15.9554 18.0798 15.7483 18.2005 15.5195 18.2332C15.2907 18.2659 15.0582 18.208 14.8714 18.0717C14.1421 17.5163 13.2507 17.2155 12.3339 17.2155C11.4172 17.2155 10.5258 17.5163 9.79645 18.0717C9.64386 18.1831 9.46037 18.2443 9.27145 18.2467ZM12.3281 21.875C12.0961 21.875 11.8735 21.7828 11.7094 21.6188C11.5453 21.4547 11.4531 21.2321 11.4531 21C11.4531 20.768 11.5453 20.5454 11.7094 20.3813C11.8735 20.2172 12.0961 20.125 12.3281 20.125C12.5602 20.125 12.7827 20.2172 12.9468 20.3813C13.1109 20.5454 13.2031 20.768 13.2031 21C13.2031 21.2321 13.1109 21.4547 12.9468 21.6188C12.7827 21.7828 12.5602 21.875 12.3281 21.875Z" fill="white"/>
</g>
</g>
</svg>
