<svg width="32" height="31" viewBox="0 0 32 31" fill="none" xmlns="http://www.w3.org/2000/svg">
<path d="M6.24573 18.8875L10.5589 14.5743L14.1456 18.161L18.1481 14.1585L15.8749 11.8852H22.214V18.2244L19.9408 15.9512L14.1456 21.7464L10.5589 18.161L7.42228 21.2976C8.84657 23.4413 11.0326 24.9634 13.5373 25.5554C16.042 26.1474 18.6782 25.765 20.9115 24.4858C23.1448 23.2066 24.8083 21.1261 25.5648 18.6661C26.3213 16.2061 26.1144 13.5504 24.9858 11.2373C23.8572 8.92418 21.8915 7.12662 19.487 6.20886C17.0824 5.2911 14.4189 5.32179 12.0361 6.29472C9.65338 7.26765 7.7296 9.11004 6.65465 11.4485C5.5797 13.7871 5.43397 16.4468 6.247 18.8887M4.29835 20.864L4.28567 20.8513L4.29075 20.8462C3.56926 19.223 3.19693 17.4663 3.19788 15.69C3.19788 8.68778 8.87394 3.01172 15.8762 3.01172C22.8784 3.01172 28.5544 8.68778 28.5544 15.69C28.5544 22.6922 22.8784 28.3683 15.8762 28.3683C10.7161 28.3683 6.2787 25.2874 4.29835 20.864Z" fill="#65B26E"/>
</svg>
