<svg width="27" height="27" viewBox="0 0 27 27" fill="none" xmlns="http://www.w3.org/2000/svg">
<g clip-path="url(#clip0_1125_17825)">
<path d="M11.2944 8.56961C7.76348 6.16046 4.47158 7.99951 1.71301 10.8316L7.81865 14.5097M18.6138 15.889C21.023 19.42 19.184 22.7119 16.3518 25.4704L12.6737 19.3648" stroke="#65B26E" stroke-width="1.75545" stroke-linecap="round" stroke-linejoin="round"/>
<path d="M10.5052 9.87405L17.3097 16.6785M7.82019 14.4901L12.6937 19.3635C16.5924 17.0279 21.0245 14.7659 23.0475 12.6694C27.4244 8.29247 24.8865 2.29718 24.8865 2.29718C24.8865 2.29718 18.8913 -0.240703 14.5143 4.13623C12.4178 6.15918 10.1374 10.6097 7.82019 14.4901Z" stroke="#65B26E" stroke-width="1.75545" stroke-linecap="round" stroke-linejoin="round"/>
<path d="M20.1035 8.00213C20.3474 8.00213 20.5812 7.90525 20.7537 7.73281C20.9261 7.56037 21.023 7.32648 21.023 7.08261C21.023 6.83874 20.9261 6.60485 20.7537 6.43241C20.5812 6.25996 20.3474 6.16309 20.1035 6.16309C19.8596 6.16309 19.6257 6.25996 19.4533 6.43241C19.2808 6.60485 19.184 6.83874 19.184 7.08261C19.184 7.32648 19.2808 7.56037 19.4533 7.73281C19.6257 7.90525 19.8596 8.00213 20.1035 8.00213ZM7.56118 23.5237C6.49453 24.5536 1.71301 25.4731 1.71301 25.4731C1.71301 25.4731 2.63254 20.6916 3.6624 19.6249C4.04325 19.2178 4.53845 18.9355 5.08284 18.8152C5.62722 18.6949 6.19526 18.7423 6.71219 18.9511C7.22912 19.1599 7.67071 19.5203 7.97884 19.985C8.28697 20.4496 8.44718 20.9966 8.43841 21.5541C8.43168 21.9241 8.35055 22.2891 8.19984 22.6271C8.04914 22.9652 7.83194 23.2713 7.56118 23.5237Z" stroke="#65B26E" stroke-width="1.75545" stroke-linecap="round" stroke-linejoin="round"/>
</g>
<defs>
<clipPath id="clip0_1125_17825">
<rect width="25.7467" height="25.7467" fill="white" transform="translate(0.780762 0.645508)"/>
</clipPath>
</defs>
</svg>
