<svg width="29" height="29" viewBox="0 0 29 29" fill="none" xmlns="http://www.w3.org/2000/svg">
<path d="M11.0781 7.26325C11.0781 6.33304 11.4477 5.44092 12.1054 4.78315C12.7632 4.12539 13.6553 3.75586 14.5855 3.75586C15.5158 3.75586 16.4079 4.12539 17.0656 4.78315C17.7234 5.44092 18.0929 6.33304 18.0929 7.26325C18.0929 8.19347 17.7234 9.08559 17.0656 9.74336C16.4079 10.4011 15.5158 10.7707 14.5855 10.7707C13.6553 10.7707 12.7632 10.4011 12.1054 9.74336C11.4477 9.08559 11.0781 8.19347 11.0781 7.26325ZM14.5855 5.51131C14.3555 5.51131 14.1277 5.55663 13.9151 5.64467C13.7025 5.73271 13.5094 5.86176 13.3467 6.02444C13.184 6.18713 13.055 6.38026 12.967 6.59282C12.8789 6.80537 12.8336 7.03319 12.8336 7.26325C12.8336 7.49332 12.8789 7.72114 12.967 7.93369C13.055 8.14625 13.184 8.33938 13.3467 8.50207C13.5094 8.66475 13.7025 8.7938 13.9151 8.88184C14.1277 8.96988 14.3555 9.0152 14.5855 9.0152C15.0502 9.0152 15.4958 8.83062 15.8243 8.50207C16.1529 8.17351 16.3375 7.7279 16.3375 7.26325C16.3375 6.79861 16.1529 6.353 15.8243 6.02444C15.4958 5.69589 15.0502 5.51131 14.5855 5.51131ZM19.8519 8.14098C19.8519 7.79519 19.92 7.45278 20.0523 7.13331C20.1847 6.81383 20.3786 6.52356 20.6231 6.27904C20.8676 6.03453 21.1579 5.84057 21.4774 5.70824C21.7969 5.57591 22.1393 5.5078 22.4851 5.5078C22.8309 5.5078 23.1733 5.57591 23.4927 5.70824C23.8122 5.84057 24.1025 6.03453 24.347 6.27904C24.5915 6.52356 24.7855 6.81383 24.9178 7.13331C25.0501 7.45278 25.1183 7.79519 25.1183 8.14098C25.1183 8.83934 24.8408 9.5091 24.347 10.0029C23.8532 10.4967 23.1834 10.7742 22.4851 10.7742C21.7867 10.7742 21.117 10.4967 20.6231 10.0029C20.1293 9.5091 19.8519 8.83934 19.8519 8.14098ZM22.4851 7.26325C22.2523 7.26325 22.029 7.35573 21.8644 7.52034C21.6998 7.68494 21.6073 7.90819 21.6073 8.14098C21.6073 8.37377 21.6998 8.59702 21.8644 8.76163C22.029 8.92623 22.2523 9.01871 22.4851 9.01871C22.7179 9.01871 22.9411 8.92623 23.1057 8.76163C23.2703 8.59702 23.3628 8.37377 23.3628 8.14098C23.3628 7.90819 23.2703 7.68494 23.1057 7.52034C22.9411 7.35573 22.7179 7.26325 22.4851 7.26325ZM6.686 5.5078C5.98763 5.5078 5.31787 5.78523 4.82406 6.27904C4.33024 6.77286 4.05282 7.44262 4.05282 8.14098C4.05282 8.83934 4.33024 9.5091 4.82406 10.0029C5.31787 10.4967 5.98763 10.7742 6.686 10.7742C7.38436 10.7742 8.05412 10.4967 8.54794 10.0029C9.04175 9.5091 9.31918 8.83934 9.31918 8.14098C9.31918 7.44262 9.04175 6.77286 8.54794 6.27904C8.05412 5.78523 7.38436 5.5078 6.686 5.5078ZM5.80827 8.14098C5.80827 7.90819 5.90074 7.68494 6.06535 7.52034C6.22996 7.35573 6.45321 7.26325 6.686 7.26325C6.91878 7.26325 7.14204 7.35573 7.30664 7.52034C7.47125 7.68494 7.56372 7.90819 7.56372 8.14098C7.56372 8.37377 7.47125 8.59702 7.30664 8.76163C7.14204 8.92623 6.91878 9.01871 6.686 9.01871C6.45321 9.01871 6.22996 8.92623 6.06535 8.76163C5.90074 8.59702 5.80827 8.37377 5.80827 8.14098ZM8.03418 12.5296C7.72601 13.0633 7.56375 13.6688 7.56372 14.2851H4.05282V18.6737C4.05267 19.1103 4.16112 19.5402 4.36839 19.9245C4.57566 20.3088 4.87525 20.6355 5.24018 20.8753C5.60512 21.1151 6.02395 21.2603 6.45897 21.2979C6.89399 21.3356 7.33155 21.2645 7.73225 21.091C7.86215 21.672 8.06578 22.2267 8.3291 22.7446C7.66284 23.0136 6.94073 23.1149 6.22617 23.0396C5.51161 22.9644 4.82646 22.7148 4.23089 22.3128C3.63533 21.9109 3.14756 21.3688 2.81043 20.7343C2.47331 20.0998 2.29712 19.3922 2.29736 18.6737V14.2851C2.29736 13.8195 2.48231 13.373 2.81152 13.0438C3.14074 12.7146 3.58724 12.5296 4.05282 12.5296H8.03418ZM20.842 22.7446C21.5082 23.0136 22.2303 23.1149 22.9449 23.0396C23.6595 22.9644 24.3446 22.7148 24.9402 22.3128C25.5357 21.9109 26.0235 21.3688 26.3606 20.7343C26.6978 20.0998 26.8739 19.3922 26.8737 18.6737V14.2851C26.8737 13.8195 26.6888 13.373 26.3595 13.0438C26.0303 12.7146 25.5838 12.5296 25.1183 12.5296H21.1369C21.4353 13.0457 21.6073 13.6443 21.6073 14.2851H25.1183V18.6737C25.1184 19.1103 25.01 19.5402 24.8027 19.9245C24.5954 20.3088 24.2958 20.6355 23.9309 20.8753C23.5659 21.1151 23.1471 21.2603 22.7121 21.2979C22.2771 21.3356 21.8395 21.2645 21.4388 21.091C21.3054 21.6738 21.1065 22.225 20.842 22.7446ZM11.0746 12.5279C10.6091 12.5279 10.1625 12.7128 9.83334 13.042C9.50413 13.3712 9.31918 13.8177 9.31918 14.2833V19.5514C9.31918 20.9482 9.87402 22.2877 10.8617 23.2753C11.8493 24.2629 13.1888 24.8178 14.5855 24.8178C15.9823 24.8178 17.3218 24.2629 18.3094 23.2753C19.297 22.2877 19.8519 20.9482 19.8519 19.5514V14.2851C19.8519 13.8195 19.6669 13.373 19.3377 13.0438C19.0085 12.7146 18.562 12.5296 18.0964 12.5296L11.0746 12.5279ZM11.0746 14.2833H18.0964V19.5514C18.0964 20.4826 17.7265 21.3756 17.0681 22.034C16.4097 22.6924 15.5167 23.0623 14.5855 23.0623C13.6544 23.0623 12.7614 22.6924 12.1029 22.034C11.4445 21.3756 11.0746 20.4826 11.0746 19.5514V14.2833Z" fill="#65B26E"/>
</svg>
